PathFileType	4	(X/Y/Z)	./resultDataOpenSim/trcMotMarkerGrf/sub06/qtm-03-07.trc
DataRate	CameraRate	NumFrames	NumMarkers	Units	OrigDataRate	OrigDataStartFrame	OrigNumFrames
250.000000	250.000000	15	24	m	250.000000	428	488
Frame#	Time	L.Toe.Tip			R.Toe.Tip			L.Ankle.Lat			R.Ankle.Lat			L.Ankle.Med			R.Ankle.Med			L.Heel			R.Heel			L.Knee.Lat			R.Knee.Lat			L.Knee.Med			R.Knee.Med			L.Thigh.Upper			R.Thigh.Upper			L.ASIS			R.ASIS			V.Sacral			L.Acromium			R.Acromium			C7			L.Elbow			R.Elbow			L.Wrist.Lat			R.Wrist.Lat
		X1	Y1	Z1	X2	Y2	Z2	X3	Y3	Z3	X4	Y4	Z4	X5	Y5	Z5	X6	Y6	Z6	X7	Y7	Z7	X8	Y8	Z8	X9	Y9	Z9	X10	Y10	Z10	X11	Y11	Z11	X12	Y12	Z12	X13	Y13	Z13	X14	Y14	Z14	X15	Y15	Z15	X16	Y16	Z16	X17	Y17	Z17	X18	Y18	Z18	X19	Y19	Z19	X20	Y20	Z20	X21	Y21	Z21	X22	Y22	Z22	X23	Y23	Z23	X24	Y24	Z24

428	1.708	1.7830186	0.033744784	-0.012970873	1.0641146	0.062328245	0.12353782	1.6602592	0.065996029	-0.040805503	1.074912	0.19839526	0.16753067	1.6559849	0.077745304	0.045946174	1.1152936	0.18847345	0.08712527	1.5814288	0.038272391	-0.002036918	1.0581275	0.24848531	0.10467088	1.7050314	0.43880118	-0.049852619	1.4209995	0.38060347	0.20190304	1.6722553	0.43369854	0.065846795	1.418822	0.35781338	0.068488162	1.5317901	0.79524113	-0.12564288	1.4197859	0.74931967	0.22478718	1.5887325	0.8309315	-0.06803927	1.559508	0.80140587	0.17304518	1.3850275	0.89033047	0.048290463	1.4961226	1.2912965	-0.14030224	1.5073581	1.2930696	0.22344233	1.4226499	1.3326629	0.041941378	1.3842512	0.99739958	-0.17325512	1.458157	0.97571226	0.30826001	1.4510657	0.77256108	-0.24398382	1.6767614	0.85882123	0.28767597
429	1.712	1.782966	0.033719427	-0.013124386	1.0752176	0.065361201	0.12430272	1.6602568	0.065866568	-0.040897251	1.0870824	0.20135986	0.16785729	1.6560997	0.077850574	0.045825824	1.1272502	0.19112641	0.087404879	1.5813695	0.038343726	-0.0020809873	1.0704376	0.25156442	0.10494012	1.7079199	0.438168	-0.050562002	1.4335848	0.38080538	0.20275314	1.6753152	0.43320621	0.065162821	1.432228	0.35793064	0.068892198	1.5378504	0.79658398	-0.1259256	1.4267373	0.75064204	0.2248293	1.594859	0.83207078	-0.068467882	1.5660086	0.80288657	0.17269806	1.3900766	0.89206211	0.04808334	1.5029931	1.2927122	-0.14047286	1.5132261	1.2944674	0.22337967	1.429098	1.3341138	0.041665952	1.3924929	0.99782833	-0.17425256	1.4627186	0.97717128	0.30708876	1.4624974	0.77355161	-0.24392275	1.6798435	0.85696502	0.28858806
430	1.716	1.7829208	0.03368739	-0.013266756	1.087524	0.068302328	0.12497606	1.6602462	0.065736258	-0.041032234	1.0993886	0.20420875	0.1680892	1.6561796	0.077963959	0.045706007	1.1393962	0.19386104	0.087662359	1.5813181	0.038402055	-0.002121906	1.082487	0.25444628	0.10530854	1.7106326	0.43756919	-0.051227099	1.4462126	0.3812225	0.20356736	1.6782005	0.43266787	0.064547842	1.445438	0.35858091	0.069331686	1.5440077	0.79789173	-0.12618484	1.4342452	0.7519937	0.22479369	1.6009302	0.83323487	-0.068852239	1.572465	0.80449244	0.17242639	1.3952615	0.8938203	0.047815469	1.5098329	1.2941882	-0.14061379	1.5190354	1.2959391	0.22334328	1.435497	1.3355965	0.04138193	1.4008264	0.99838616	-0.17515306	1.4672048	0.97867228	0.30592732	1.4740083	0.77467716	-0.24381116	1.6828482	0.85517806	0.28949764
431	1.72	1.7828852	0.033653696	-0.01339534	1.100951	0.071076158	0.12551124	1.660218	0.065628126	-0.041241365	1.1118715	0.20696274	0.16823357	1.6562497	0.07807903	0.045589915	1.1517473	0.19665716	0.087875493	1.5812764	0.038446591	-0.0021393165	1.0943843	0.25713466	0.10570213	1.713186	0.43700952	-0.051839681	1.4588918	0.38185324	0.20434335	1.6809187	0.43210664	0.064000999	1.458448	0.35968519	0.069832188	1.5503168	0.79916388	-0.12643133	1.4422236	0.75337782	0.2246914	1.6069578	0.83441991	-0.069200665	1.5788799	0.80621144	0.17222651	1.4009529	0.89550409	0.047497859	1.5166347	1.2957166	-0.14072852	1.5247935	1.2974745	0.22332671	1.4418537	1.3371074	0.041110156	1.4092348	0.99902396	-0.17597665	1.4717195	0.98018075	0.30478019	1.4856092	0.77593743	-0.24365114	1.6857756	0.85347227	0.29040523
432	1.724	1.7828563	0.033624643	-0.013511871	1.1153058	0.073641568	0.12591701	1.660175	0.065559628	-0.041529647	1.1245473	0.20959369	0.16830659	1.6563301	0.078188816	0.045480817	1.1643282	0.19948314	0.088027741	1.5812417	0.038485865	-0.0021352321	1.1062617	0.25957412	0.10599685	1.715583	0.43648902	-0.052396335	1.471628	0.38268942	0.20507872	1.6834626	0.43155741	0.063511916	1.471277	0.36116082	0.070364722	1.5567037	0.80040835	-0.12666906	1.4506094	0.75479485	0.22452792	1.6129497	0.8356259	-0.069517625	1.5852368	0.80802736	0.17209061	1.407099	0.89711331	0.047182209	1.5234053	1.2973228	-0.1408238	1.5304971	1.2990666	0.22332679	1.4481698	1.3386506	0.04086625	1.4177059	0.99971556	-0.17674514	1.4763144	0.98170139	0.30365452	1.4973038	0.77733159	-0.2434452	1.6886151	0.85185617	0.29131263
433	1.728	1.7828272	0.033603571	-0.013619478	1.1303878	0.075981094	0.12624152	1.6601326	0.065528527	-0.041837632	1.1374062	0.21204912	0.16832293	1.6564171	0.078287582	0.045384178	1.1771342	0.20231837	0.088096653	1.5812109	0.038531195	-0.0021256088	1.1182247	0.26169905	0.10608314	1.7178181	0.4360028	-0.052894294	1.4844065	0.38371592	0.20577274	1.6858193	0.43106122	0.063070687	1.4839667	0.36291693	0.070894296	1.5629827	0.80163442	-0.12689646	1.4593493	0.75624406	0.2243062	1.6189054	0.8368565	-0.069803852	1.5915073	0.80992131	0.17201175	1.413387	0.89870136	0.046932954	1.530166	1.2990459	-0.14090688	1.5361396	1.3007153	0.22334274	1.4544349	1.3402357	0.04064552	1.4262209	1.0004555	-0.17749299	1.4810308	0.98325139	0.30255233	1.5090707	0.77885726	-0.24319053	1.6913542	0.85033215	0.29222014
434	1.732	1.7827947	0.033591005	-0.013719721	1.146029	0.07808268	0.12656726	1.6601077	0.065512158	-0.042066534	1.1504442	0.21429389	0.16829771	1.6565002	0.07837851	0.045303791	1.1901244	0.20514649	0.088065253	1.5811793	0.038590948	-0.0021355453	1.1302614	0.26349761	0.10601499	1.7198971	0.43554641	-0.053327969	1.4972112	0.38491845	0.20642623	1.6879939	0.43065239	0.062678182	1.4965964	0.36485499	0.071464798	1.5690254	0.80284225	-0.12711003	1.4683908	0.75772463	0.22402885	1.624817	0.8381154	-0.070061286	1.5976794	0.81187811	0.17198733	1.4195542	0.90032394	0.046788432	1.5369277	1.3008998	-0.1409816	1.5417204	1.3024219	0.22337521	1.4606394	1.3418676	0.040436143	1.434761	1.0012502	-0.17824729	1.4859038	0.98484646	0.30147653	1.5208741	0.78050769	-0.24287921	1.693991	0.84890283	0.29312656
435	1.736	1.7827617	0.033585872	-0.013811459	1.1620863	0.079930497	0.1270138	1.6600985	0.06548118	-0.042160406	1.1636747	0.21632769	0.16824891	1.6565977	0.078479306	0.045237088	1.2032688	0.20793758	0.087965587	1.5811382	0.038664195	-0.0021971992	1.1422758	0.26500151	0.10596881	1.7218447	0.43511901	-0.053688425	1.5100358	0.38628971	0.20703928	1.6900177	0.43035219	0.062346844	1.5092763	0.36688208	0.072200467	1.574803	0.80403377	-0.1273099	1.4776791	0.75923594	0.22369895	1.630683	0.83940206	-0.070297453	1.6037694	0.81388544	0.17201494	1.4255587	0.90202677	0.046711407	1.5436631	1.3028435	-0.1410419	1.5472491	1.3041827	0.22342561	1.4667846	1.3435375	0.040233949	1.4433142	1.0021072	-0.17901101	1.4908864	0.98650531	0.30043236	1.5326965	0.78227316	-0.24250662	1.6965349	0.84757359	0.29402875
436	1.74	1.7827342	0.033585651	-0.013891569	1.1784551	0.081522273	0.12766693	1.66009	0.065416215	-0.042134039	1.177119	0.21816747	0.16818858	1.6567741	0.078616129	0.04517609	1.2165725	0.21061955	0.087872318	1.5810816	0.038739317	-0.0023223471	1.1542564	0.2662223	0.10602256	1.7236955	0.43472472	-0.05396444	1.5228695	0.38783295	0.20761081	1.6919272	0.43016794	0.062091293	1.5220951	0.36893314	0.073175888	1.5802736	0.80522334	-0.12749978	1.4871581	0.76077756	0.2233199	1.6365151	0.84071098	-0.070522055	1.6097986	0.81592887	0.17208412	1.4315311	0.9038467	0.046603112	1.5503218	1.3048063	-0.14107811	1.552748	1.3059922	0.22349684	1.4728812	1.3452314	0.040041658	1.4518749	1.0030253	-0.17977742	1.4957917	0.98824608	0.29941171	1.5445478	0.78414538	-0.24207567	1.6989937	0.84635025	0.29492426
437	1.744	1.7827157	0.033586092	-0.013957238	1.1950946	0.082904986	0.12842877	1.6600763	0.065324986	-0.042045547	1.1907833	0.21981359	0.16811397	1.6570996	0.078806111	0.045113531	1.2300519	0.21305561	0.087829435	1.5810202	0.038802374	-0.0024587837	1.1663311	0.26713172	0.10609551	1.7254803	0.43437131	-0.054146667	1.5356922	0.38956218	0.20813992	1.6937379	0.43009249	0.061917971	1.5350467	0.37100051	0.074260405	1.5853948	0.80641867	-0.12768185	1.4967711	0.76234913	0.22289529	1.6423263	0.8420344	-0.07074409	1.6157834	0.81799472	0.1721765	1.4376133	0.90578443	0.046386801	1.55688	1.3067493	-0.14108957	1.5582562	1.3078524	0.22359718	1.4789438	1.3469461	0.039864004	1.4604436	1.0039947	-0.1805422	1.5004034	0.9900747	0.2983968	1.5564403	0.78612013	-0.24159178	1.7013692	0.84523486	0.29581589
438	1.748	1.7827059	0.033582125	-0.014007672	1.2119967	0.084159307	0.12903772	1.660064	0.06524231	-0.041965014	1.2046238	0.22122197	0.16801608	1.6575504	0.079033831	0.045051672	1.2437228	0.21508874	0.087825783	1.5809771	0.038851462	-0.0025211859	1.1786522	0.26769933	0.10608822	1.727217	0.43406414	-0.054233553	1.5484804	0.39149342	0.20862813	1.6954487	0.43010947	0.06182408	1.5480083	0.37313952	0.075148394	1.5903014	0.80760194	-0.1278571	1.5064614	0.76395027	0.22242866	1.6481172	0.84336578	-0.070973603	1.6217488	0.82007499	0.17227546	1.4438592	0.90777323	0.046047985	1.5633569	1.3086864	-0.14107851	1.563822	1.3097682	0.22373797	1.4849875	1.3486851	0.039706412	1.469024	1.0050079	-0.1813024	1.5047256	0.99198103	0.29739572	1.5683725	0.78819737	-0.24105755	1.7036644	0.84422433	0.29670546
439	1.752	1.7827026	0.033570558	-0.014043809	1.2291176	0.085317881	0.12936508	1.6600587	0.065198698	-0.041931827	1.2185305	0.22230321	0.16789599	1.6579797	0.079252421	0.045003411	1.257602	0.21663301	0.087835917	1.5809626	0.038900952	-0.0024921766	1.1912943	0.26792913	0.10597326	1.7289094	0.43380208	-0.054231994	1.5612106	0.39363149	0.20907927	1.6970668	0.43020264	0.06180349	1.5608449	0.37541754	0.075613538	1.5953	0.8087412	-0.12802954	1.5161727	0.76558059	0.22192356	1.6538761	0.84470334	-0.071216867	1.6277132	0.82216585	0.1723696	1.4502323	0.90972005	0.045617975	1.5697842	1.3106489	-0.14104106	1.5694747	1.3117228	0.22391467	1.4910223	1.3504422	0.039574694	1.4776166	1.0060638	-0.1820598	1.5090428	0.99394253	0.29645618	1.580342	0.79038065	-0.24047115	1.7058874	0.84331519	0.29758704
440	1.756	1.782703	0.033552773	-0.014067358	1.2463723	0.086332606	0.12958885	1.6600577	0.065196935	-0.041935987	1.2323724	0.2229667	0.16776603	1.6582506	0.079426642	0.044979717	1.2716955	0.21771086	0.087845645	1.5809645	0.038967953	-0.002437936	1.2042414	0.26785253	0.10577517	1.7305546	0.43357919	-0.054152403	1.5738651	0.39596618	0.20949593	1.698604	0.4303559	0.061848002	1.5735665	0.37784701	0.075686991	1.6005612	0.80981649	-0.12820349	1.5258486	0.76723969	0.22138349	1.6595804	0.84605213	-0.07146912	1.6336733	0.82426263	0.17245026	1.4566472	0.91158603	0.045153748	1.5761795	1.312648	-0.14097549	1.5752046	1.3136697	0.22409626	1.4970505	1.3522038	0.039474646	1.4862207	1.007162	-0.18282371	1.513643	0.99593401	0.29562953	1.5923551	0.79267379	-0.23982768	1.7080449	0.84250668	0.29845629
441	1.76	1.7827043	0.033533874	-0.014079236	1.2637114	0.08714664	0.12998231	1.6600553	0.065225946	-0.041954975	1.2461162	0.22319411	0.16763262	1.6583508	0.079561727	0.044979682	1.2859881	0.21840609	0.087853076	1.5809659	0.039059791	-0.0024183115	1.2174247	0.26749169	0.10554251	1.7321545	0.43338758	-0.054006761	1.586439	0.39848158	0.20987761	1.7000547	0.43054492	0.061946249	1.5863162	0.3803763	0.075562541	1.6059598	0.81083048	-0.1283772	1.5354326	0.76892717	0.22081194	1.665211	0.84742208	-0.071721146	1.6396325	0.82635738	0.17251309	1.463015	0.91339779	0.044712056	1.5825449	1.3146762	-0.14088562	1.5809847	1.3155685	0.22424926	1.5030715	1.3539621	0.039408305	1.4948334	1.0083016	-0.18360105	1.5185915	0.99795189	0.29493351	1.6044093	0.79507321	-0.23912547	1.7101396	0.84179952	0.29932035
442	1.764	1.7827065	0.033518328	-0.014078857	1.281164	0.087761436	0.13065768	1.6600488	0.065283338	-0.041994613	1.2598967	0.22306789	0.16748118	1.6583529	0.079681247	0.044994796	1.3004506	0.21879773	0.08786673	1.5809605	0.039177632	-0.0024392278	1.2307652	0.26684082	0.10533893	1.7337142	0.43321934	-0.053810397	1.5989347	0.4011654	0.21022259	1.7014028	0.4307391	0.062087999	1.5991611	0.38294708	0.075425777	1.6112948	0.811801	-0.12854421	1.5448682	0.77064263	0.22021234	1.670794	0.84882032	-0.071979045	1.6456106	0.82844397	0.17255627	1.4692408	0.91519402	0.044328478	1.5888777	1.3167285	-0.14077267	1.5867961	1.3174189	0.22436384	1.5090859	1.355719	0.039368374	1.5034415	1.0094838	-0.18438196	1.5237965	1.0000316	0.2943477	1.6164725	0.79756568	-0.23837243	1.7121719	0.8411951	0.30018941
